<?xml version="1.0" encoding="UTF-8" standalone="no"?>
<!-- Created with Inkscape (http://www.inkscape.org/) -->

<svg
   xmlns:dc="http://purl.org/dc/elements/1.1/"
   xmlns:cc="http://creativecommons.org/ns#"
   xmlns:rdf="http://www.w3.org/1999/02/22-rdf-syntax-ns#"
   xmlns:svg="http://www.w3.org/2000/svg"
   xmlns="http://www.w3.org/2000/svg"
   xmlns:sodipodi="http://sodipodi.sourceforge.net/DTD/sodipodi-0.dtd"
   xmlns:inkscape="http://www.inkscape.org/namespaces/inkscape"
   id="svg2"
   version="1.1"
   inkscape:version="0.48.5 r10040"
   width="562.5"
   height="562.5"
   xml:space="preserve"
   sodipodi:docname="SEDS_NCSU_Logos-3.svg"><metadata
     id="metadata8"><rdf:RDF><cc:Work
         rdf:about=""><dc:format>image/svg+xml</dc:format><dc:type
           rdf:resource="http://purl.org/dc/dcmitype/StillImage" /><dc:title /></cc:Work></rdf:RDF></metadata><defs
     id="defs6"><clipPath
       clipPathUnits="userSpaceOnUse"
       id="clipPath16"><path
         d="M 0,450 450,450 450,0 0,0 0,450 z"
         id="path18" /></clipPath></defs><sodipodi:namedview
     pagecolor="#ffffff"
     bordercolor="#666666"
     borderopacity="1"
     objecttolerance="10"
     gridtolerance="10"
     guidetolerance="10"
     inkscape:pageopacity="0"
     inkscape:pageshadow="2"
     inkscape:window-width="640"
     inkscape:window-height="480"
     id="namedview4"
     showgrid="false"
     inkscape:zoom="0.41955556"
     inkscape:cx="281.25"
     inkscape:cy="281.25"
     inkscape:window-x="1615"
     inkscape:window-y="262"
     inkscape:window-maximized="0"
     inkscape:current-layer="g10" /><g
     inkscape:groupmode="layer"
     id="layer1"
     inkscape:label="Layer"
     style="display:inline"><path
       sodipodi:type="arc"
       style="fill:#ffffff;display:inline"
       id="path2998"
       sodipodi:cx="301.50952"
       sodipodi:cy="272.90784"
       sodipodi:rx="110.83157"
       sodipodi:ry="148.96716"
       d="m 412.34109,272.90784 a 110.83157,148.96716 0 1 1 -221.66314,0 110.83157,148.96716 0 1 1 221.66314,0 z"
       transform="matrix(1.3978495,0,0,1.04,-233.17044,-2.57415)" /></g><g
     id="g10"
     inkscape:groupmode="layer"
     inkscape:label="SEDS-NCSU_Logos"
     transform="matrix(1.25,0,0,-1.25,0,562.5)"
     style="display:inline"><g
       id="g12"><g
         id="g14"
         clip-path="url(#clipPath16)"><g
           id="g20"
           transform="translate(30.792,225)"><path
             d="M 0,0 C 0,52.997 34.347,97.941 81.981,113.878 56.985,89.258 40.46,48.104 40.189,1.36 39.903,-47.143 57.186,-89.842 83.493,-114.389 35.069,-98.912 0,-53.561 0,0 m 230.728,-12.367 c -2.249,3.364 -3.582,7.386 -3.556,11.75 0.024,4.415 1.447,8.46 3.778,11.819 2.005,2.889 4.72,5.235 7.873,6.848 0.89,-5.888 1.355,-11.915 1.355,-18.05 0,-6.614 -0.556,-13.097 -1.584,-19.418 -3.176,1.667 -5.891,4.084 -7.866,7.051 m -109.507,8.541 -1.629,0.981 c -3.989,2.264 -5.077,2.998 -6.224,3.733 -3.868,2.63 -6.274,5.677 -6.245,10.225 0.039,6.73 5.641,10.699 12.068,10.659 6.73,-0.039 11.981,-4.01 11.946,-10.438 -0.012,-1.575 -1.412,-2.78 -3.171,-2.77 -1.759,0.011 -3.145,1.231 -3.139,2.806 0.019,2.791 -1.789,4.806 -5.669,4.826 -3.942,0.024 -5.715,-2.575 -5.728,-5.059 -0.008,-1.337 -0.018,-3.157 3.239,-5.48 0.968,-0.792 3.507,-2.381 7.676,-4.774 4.652,-2.755 7.475,-6.955 7.447,-12.048 -0.04,-7.032 -6.252,-10.999 -12.737,-10.963 -7.822,0.047 -12.459,5.351 -12.427,10.869 0.007,1.576 1.411,2.78 3.108,2.77 1.759,-0.01 3.206,-1.233 3.196,-2.804 -0.015,-2.668 2.093,-5.23 6.155,-5.254 3.882,-0.02 6.378,2.145 6.4,5.421 0.014,2.604 -0.58,4.855 -4.266,7.3 m 35.283,7.858 c 1.759,-0.011 3.144,-1.293 3.134,-2.869 -0.007,-1.516 -1.408,-2.721 -3.166,-2.71 l -11.826,0.069 -0.085,-14.793 13.706,-0.083 c 1.758,-0.008 3.145,-1.228 3.134,-2.867 -0.011,-1.578 -1.412,-2.777 -3.171,-2.772 l -16.915,0.101 c -1.698,0.01 -3.084,1.231 -3.078,2.809 l 0.224,37.655 c 0.007,1.513 1.407,2.718 3.104,2.707 l 16.737,-0.095 c 1.759,-0.014 3.145,-1.234 3.135,-2.749 -0.008,-1.577 -1.409,-2.843 -3.167,-2.833 L 144.746,15.683 144.677,4.1 156.504,4.032 z m 35.322,4.584 -0.107,-18.374 c -0.043,-6.851 -5.774,-12.396 -12.809,-12.352 l -8.731,0.049 c -1.759,0.013 -3.205,1.228 -3.195,2.809 l 0.218,37.652 c 0.012,1.516 1.472,2.721 3.231,2.71 l 8.731,-0.051 c 7.035,-0.039 12.701,-5.592 12.662,-12.443 m 20.12,-12.972 -1.631,0.976 c -3.989,2.269 -5.077,3.001 -6.224,3.738 -3.864,2.627 -6.274,5.675 -6.244,10.223 0.04,6.731 5.637,10.698 12.068,10.662 6.729,-0.042 11.981,-4.011 11.943,-10.438 -0.009,-1.576 -1.41,-2.784 -3.169,-2.77 -1.758,0.008 -3.149,1.231 -3.137,2.806 0.014,2.791 -1.79,4.8 -5.669,4.823 -3.944,0.024 -5.716,-2.572 -5.732,-5.057 -0.005,-1.336 -0.016,-3.157 3.244,-5.48 0.964,-0.791 3.501,-2.383 7.672,-4.773 4.65,-2.755 7.477,-6.956 7.448,-12.049 -0.039,-7.034 -6.249,-10.999 -12.737,-10.962 -7.821,0.046 -12.462,5.349 -12.428,10.869 0.011,1.575 1.413,2.78 3.109,2.769 1.759,-0.009 3.206,-1.233 3.198,-2.808 -0.016,-2.669 2.089,-5.226 6.154,-5.252 3.878,-0.021 6.379,2.147 6.396,5.421 0.016,2.606 -0.576,4.854 -4.261,7.302 m 34.881,24.835 -0.043,0 C 236.977,81.62 183.998,128.34 120.09,128.34 49.208,128.34 -8.252,70.878 -8.252,0 c 0,-70.881 57.46,-128.34 128.342,-128.34 63.388,0 116.005,45.967 126.43,106.378 0.019,0 0.036,-0.005 0.055,-0.005 11.724,-0.07 21.283,9.376 21.351,21.1 0.068,11.721 -9.375,21.279 -21.099,21.346"
             style="fill:#bf0c26;fill-opacity:1;fill-rule:nonzero;stroke:none"
             id="path22"
             inkscape:connector-curvature="0" /></g><g
           id="g24"
           transform="translate(204.2334,208.5596)"><path
             d="m 0,0 5.642,-0.036 c 3.578,-0.016 6.443,2.998 6.464,6.755 l 0.108,18.372 c 0.021,3.761 -2.809,6.806 -6.386,6.83 L 0.186,31.954 0,0 z"
             style="fill:#bf0c26;fill-opacity:1;fill-rule:nonzero;stroke:none"
             id="path26"
             inkscape:connector-curvature="0" /></g><g
           id="g28"
           transform="translate(326.1514,203.665)"><path
             d="m 0,0 -14.063,28.248 0.55,-26.964 c 0,-1.59 -1.406,-2.874 -3.178,-2.874 -1.712,0 -3.18,1.284 -3.18,2.874 l 0,38.581 c 0,1.59 1.59,2.813 3.18,2.813 1.161,0 2.323,-0.735 2.812,-1.59 L 0.184,12.962 -0.367,39.865 c 0,1.59 1.406,2.813 3.18,2.813 1.773,0 3.179,-1.223 3.179,-2.813 l 0,-38.581 c 0,-1.345 -1.04,-2.445 -2.446,-2.812 l 0.123,0.061 C 3.302,-1.59 3.118,-1.59 2.813,-1.59 1.712,-1.59 0.489,-0.917 0,0"
             style="fill:#bf0c26;fill-opacity:1;fill-rule:nonzero;stroke:none"
             id="path30"
             inkscape:connector-curvature="0" /></g><g
           id="g32"
           transform="translate(340.6416,214.5488)"><path
             d="m 0,0 0,19.32 c 0,6.849 5.686,12.474 12.84,12.474 6.602,0 12.045,-5.197 12.778,-11.25 -0.061,-1.346 -1.284,-2.874 -2.874,-3.058 -1.712,-0.183 -3.302,0.917 -3.484,2.507 -0.367,3.547 -3.119,6.176 -6.42,6.176 -3.608,0 -6.543,-3.118 -6.543,-6.849 L 6.297,0 c 0,-3.73 2.935,-6.849 6.543,-6.849 3.301,0 6.053,2.691 6.42,6.176 0.182,1.59 1.772,2.691 3.484,2.507 1.59,-0.184 2.813,-1.712 2.874,-3.058 C 24.762,-7.46 18.953,-12.474 12.84,-12.474 5.686,-12.474 0,-6.909 0,0"
             style="fill:#bf0c26;fill-opacity:1;fill-rule:nonzero;stroke:none"
             id="path34"
             inkscape:connector-curvature="0" /></g><g
           id="g36"
           transform="translate(369.8652,212.959)"><path
             d="M 0,0 C 0,1.59 1.406,2.813 3.118,2.813 4.892,2.813 6.359,1.59 6.359,0 c 0,-2.69 2.14,-5.259 6.237,-5.259 3.913,0 6.42,2.201 6.42,5.503 0,2.629 -0.612,4.892 -4.341,7.337 L 13.023,8.56 c -4.035,2.262 -5.135,2.996 -6.297,3.73 -3.913,2.629 -6.359,5.686 -6.359,10.272 0,6.787 5.625,10.822 12.107,10.822 6.786,0 12.105,-3.975 12.105,-10.455 0,-1.59 -1.406,-2.813 -3.179,-2.813 -1.773,0 -3.179,1.223 -3.179,2.813 0,2.812 -1.834,4.83 -5.747,4.83 -3.975,0 -5.748,-2.629 -5.748,-5.136 0,-1.346 0,-3.18 3.301,-5.503 0.979,-0.795 3.547,-2.385 7.766,-4.769 4.708,-2.752 7.581,-6.971 7.581,-12.107 0,-7.092 -6.236,-11.128 -12.778,-11.128 C 4.708,-10.884 0,-5.564 0,0"
             style="fill:#bf0c26;fill-opacity:1;fill-rule:nonzero;stroke:none"
             id="path38"
             inkscape:connector-curvature="0" /></g><g
           id="g40"
           transform="translate(401.7803,214.5488)"><path
             d="m 0,0 0,28.981 c 0,1.59 1.468,2.813 3.24,2.813 1.712,0 3.118,-1.223 3.118,-2.813 L 6.358,0 c 0,-3.73 2.936,-6.787 6.482,-6.787 3.607,0 6.542,3.057 6.542,6.787 l 0,28.981 c 0,1.59 1.406,2.813 3.18,2.813 1.711,0 3.118,-1.223 3.118,-2.813 L 25.68,0 c 0,-6.849 -5.687,-12.474 -12.84,-12.474 C 5.747,-12.474 0,-6.849 0,0"
             style="fill:#bf0c26;fill-opacity:1;fill-rule:nonzero;stroke:none"
             id="path42"
             inkscape:connector-curvature="0" /></g></g></g></g></svg>