<?xml version="1.0" encoding="UTF-8" standalone="no"?>
<!-- Created with Inkscape (http://www.inkscape.org/) -->

<svg
   xmlns:dc="http://purl.org/dc/elements/1.1/"
   xmlns:cc="http://creativecommons.org/ns#"
   xmlns:rdf="http://www.w3.org/1999/02/22-rdf-syntax-ns#"
   xmlns:svg="http://www.w3.org/2000/svg"
   xmlns="http://www.w3.org/2000/svg"
   xmlns:sodipodi="http://sodipodi.sourceforge.net/DTD/sodipodi-0.dtd"
   xmlns:inkscape="http://www.inkscape.org/namespaces/inkscape"
   id="svg2"
   version="1.1"
   inkscape:version="0.48.5 r10040"
   width="562.5"
   height="562.5"
   xml:space="preserve"
   sodipodi:docname="SEDS_NCSU_Logos-1.svg"><metadata
     id="metadata8"><rdf:RDF><cc:Work
         rdf:about=""><dc:format>image/svg+xml</dc:format><dc:type
           rdf:resource="http://purl.org/dc/dcmitype/StillImage" /></cc:Work></rdf:RDF></metadata><defs
     id="defs6"><clipPath
       clipPathUnits="userSpaceOnUse"
       id="clipPath18"><path
         d="M 0,450 450,450 450,0 0,0 0,450 z"
         id="path20" /></clipPath></defs><sodipodi:namedview
     pagecolor="#ffffff"
     bordercolor="#666666"
     borderopacity="1"
     objecttolerance="10"
     gridtolerance="10"
     guidetolerance="10"
     inkscape:pageopacity="0"
     inkscape:pageshadow="2"
     inkscape:window-width="920"
     inkscape:window-height="617"
     id="namedview4"
     showgrid="false"
     inkscape:zoom="0.41955556"
     inkscape:cx="281.25"
     inkscape:cy="281.25"
     inkscape:window-x="2140"
     inkscape:window-y="165"
     inkscape:window-maximized="0"
     inkscape:current-layer="g10" /><g
     inkscape:groupmode="layer"
     id="layer1"
     inkscape:label="Red background"><path
       sodipodi:type="arc"
       style="fill:#bf0c26;fill-opacity:1;fill-rule:evenodd;stroke:none"
       id="path3852"
       sodipodi:cx="-274.09958"
       sodipodi:cy="467.16101"
       sodipodi:rx="112.02331"
       sodipodi:ry="123.94068"
       d="m -162.07627,467.16101 a 112.02331,123.94068 0 1 1 -224.04662,0 112.02331,123.94068 0 1 1 224.04662,0 z"
       transform="matrix(1.4042554,0,0,1.2692308,573.20027,-311.68514)" /></g><g
     id="g10"
     inkscape:groupmode="layer"
     inkscape:label="SEDS-NCSU_Logos-1"
     transform="matrix(1.25,0,0,-1.25,0,562.5)"><g
       id="g14"><g
         id="g16"
         clip-path="url(#clipPath18)"><g
           id="g22"
           transform="translate(30.793,225)"><path
             d="M 0,0 C 0,52.997 34.346,97.941 81.98,113.878 56.984,89.258 40.459,48.104 40.188,1.36 39.902,-47.143 57.186,-89.842 83.492,-114.389 35.068,-98.912 0,-53.561 0,0 m 230.727,-12.367 c -2.248,3.364 -3.582,7.386 -3.555,11.75 0.023,4.415 1.447,8.46 3.777,11.819 2.006,2.889 4.721,5.235 7.873,6.848 0.891,-5.888 1.356,-11.915 1.356,-18.05 0,-6.614 -0.557,-13.097 -1.584,-19.418 -3.176,1.667 -5.891,4.084 -7.867,7.051 m -109.508,8.541 -1.629,0.981 c -3.988,2.264 -5.076,2.998 -6.223,3.733 -3.867,2.63 -6.273,5.677 -6.244,10.225 0.037,6.73 5.639,10.699 12.066,10.659 6.731,-0.039 11.981,-4.01 11.946,-10.438 -0.012,-1.575 -1.412,-2.78 -3.17,-2.77 -1.758,0.011 -3.145,1.231 -3.139,2.806 0.02,2.791 -1.789,4.806 -5.668,4.826 -3.943,0.024 -5.715,-2.575 -5.728,-5.059 -0.008,-1.337 -0.02,-3.157 3.238,-5.48 0.969,-0.792 3.506,-2.381 7.676,-4.774 4.652,-2.755 7.476,-6.955 7.447,-12.048 -0.041,-7.032 -6.252,-10.999 -12.736,-10.963 -7.823,0.047 -12.459,5.351 -12.428,10.869 0.008,1.576 1.412,2.78 3.109,2.77 1.758,-0.01 3.205,-1.233 3.194,-2.804 -0.014,-2.668 2.093,-5.23 6.156,-5.254 3.883,-0.02 6.379,2.145 6.4,5.421 0.014,2.604 -0.58,4.855 -4.267,7.3 m 35.285,7.858 c 1.758,-0.011 3.142,-1.293 3.133,-2.869 -0.006,-1.516 -1.407,-2.721 -3.166,-2.71 l -11.826,0.069 -0.086,-14.793 13.707,-0.083 c 1.759,-0.008 3.144,-1.228 3.134,-2.867 -0.011,-1.578 -1.412,-2.777 -3.17,-2.772 l -16.916,0.101 c -1.697,0.01 -3.084,1.231 -3.078,2.809 l 0.225,37.655 c 0.006,1.513 1.406,2.718 3.103,2.707 l 16.737,-0.095 c 1.76,-0.014 3.144,-1.234 3.135,-2.749 -0.008,-1.577 -1.409,-2.843 -3.166,-2.833 L 144.744,15.683 144.676,4.1 156.504,4.032 z m 35.322,4.584 -0.109,-18.374 c -0.041,-6.851 -5.774,-12.396 -12.809,-12.352 l -8.73,0.049 c -1.76,0.013 -3.205,1.228 -3.196,2.809 l 0.219,37.652 c 0.012,1.516 1.473,2.721 3.231,2.71 l 8.732,-0.051 c 7.035,-0.039 12.701,-5.592 12.662,-12.443 m 20.119,-12.972 -1.631,0.976 c -3.988,2.269 -5.076,3.001 -6.224,3.738 -3.863,2.627 -6.274,5.675 -6.244,10.223 0.039,6.731 5.638,10.698 12.068,10.662 6.729,-0.042 11.981,-4.011 11.943,-10.438 -0.009,-1.576 -1.41,-2.784 -3.168,-2.77 -1.759,0.008 -3.15,1.231 -3.138,2.806 0.015,2.791 -1.789,4.8 -5.668,4.823 -3.944,0.024 -5.717,-2.572 -5.733,-5.057 -0.005,-1.336 -0.015,-3.157 3.245,-5.48 0.964,-0.791 3.501,-2.383 7.671,-4.773 4.651,-2.755 7.477,-6.956 7.448,-12.049 -0.039,-7.034 -6.248,-10.999 -12.737,-10.962 -7.82,0.046 -12.461,5.349 -12.429,10.869 0.011,1.575 1.414,2.78 3.111,2.769 1.758,-0.009 3.205,-1.233 3.197,-2.808 -0.015,-2.669 2.09,-5.226 6.155,-5.252 3.878,-0.021 6.378,2.147 6.396,5.421 0.016,2.606 -0.576,4.854 -4.262,7.302 m 34.881,24.835 -0.043,0 C 236.977,81.62 183.998,128.34 120.09,128.34 49.207,128.34 -8.254,70.878 -8.254,0 c 0,-70.881 57.461,-128.34 128.344,-128.34 63.387,0 116.004,45.967 126.43,106.378 0.019,0 0.035,-0.005 0.054,-0.005 11.725,-0.07 21.283,9.376 21.352,21.1 0.068,11.721 -9.375,21.279 -21.1,21.346"
             style="fill:#ffffff;fill-opacity:1;fill-rule:nonzero;stroke:none"
             id="path24" /></g><g
           id="g26"
           transform="translate(204.2344,209.041)"><path
             d="m 0,0 5.641,-0.036 c 3.578,-0.016 6.443,2.998 6.464,6.755 l 0.108,18.371 c 0.021,3.762 -2.809,6.807 -6.385,6.83 L 0.186,31.954 0,0 z"
             style="fill:#ffffff;fill-opacity:1;fill-rule:nonzero;stroke:none"
             id="path28" /></g><g
           id="g30"
           transform="translate(326.1523,204.4561)"><path
             d="m 0,0 -14.063,28.248 0.549,-26.964 c 0,-1.59 -1.406,-2.874 -3.177,-2.874 -1.713,0 -3.18,1.284 -3.18,2.874 l 0,38.581 c 0,1.59 1.59,2.813 3.18,2.813 1.16,0 2.322,-0.735 2.812,-1.59 L 0.184,12.962 -0.367,39.865 c 0,1.59 1.406,2.813 3.18,2.813 1.773,0 3.179,-1.223 3.179,-2.813 l 0,-38.581 c 0,-1.345 -1.041,-2.445 -2.447,-2.812 l 0.123,0.061 C 3.301,-1.59 3.117,-1.59 2.813,-1.59 1.711,-1.59 0.488,-0.917 0,0"
             style="fill:#ffffff;fill-opacity:1;fill-rule:nonzero;stroke:none"
             id="path32" /></g><g
           id="g34"
           transform="translate(340.6426,215.3398)"><path
             d="m 0,0 0,19.32 c 0,6.849 5.686,12.474 12.84,12.474 6.601,0 12.045,-5.197 12.777,-11.25 -0.06,-1.346 -1.283,-2.874 -2.873,-3.058 -1.713,-0.183 -3.303,0.917 -3.484,2.507 -0.367,3.547 -3.119,6.176 -6.42,6.176 -3.608,0 -6.543,-3.118 -6.543,-6.849 L 6.297,0 c 0,-3.73 2.935,-6.849 6.543,-6.849 3.301,0 6.053,2.691 6.42,6.176 0.181,1.59 1.771,2.691 3.484,2.507 1.59,-0.184 2.813,-1.712 2.873,-3.058 C 24.762,-7.46 18.953,-12.474 12.84,-12.474 5.686,-12.474 0,-6.909 0,0"
             style="fill:#ffffff;fill-opacity:1;fill-rule:nonzero;stroke:none"
             id="path36" /></g><g
           id="g38"
           transform="translate(369.8652,213.75)"><path
             d="m 0,0 c 0,1.59 1.406,2.813 3.119,2.813 1.774,0 3.24,-1.223 3.24,-2.813 0,-2.69 2.141,-5.259 6.237,-5.259 3.914,0 6.42,2.201 6.42,5.503 0,2.629 -0.612,4.892 -4.34,7.337 L 13.023,8.56 c -4.035,2.262 -5.134,2.996 -6.296,3.73 -3.914,2.629 -6.36,5.686 -6.36,10.272 0,6.787 5.625,10.822 12.108,10.822 6.785,0 12.105,-3.975 12.105,-10.455 0,-1.59 -1.406,-2.813 -3.18,-2.813 -1.773,0 -3.179,1.223 -3.179,2.813 0,2.812 -1.834,4.83 -5.746,4.83 -3.975,0 -5.748,-2.629 -5.748,-5.136 0,-1.346 0,-3.18 3.3,-5.503 0.979,-0.795 3.547,-2.385 7.766,-4.769 4.709,-2.752 7.582,-6.971 7.582,-12.107 0,-7.092 -6.236,-11.128 -12.779,-11.128 C 4.709,-10.884 0,-5.564 0,0"
             style="fill:#ffffff;fill-opacity:1;fill-rule:nonzero;stroke:none"
             id="path40" /></g><g
           id="g42"
           transform="translate(401.7812,215.3398)"><path
             d="m 0,0 0,28.981 c 0,1.59 1.467,2.813 3.24,2.813 1.711,0 3.117,-1.223 3.117,-2.813 L 6.357,0 c 0,-3.73 2.936,-6.787 6.483,-6.787 3.607,0 6.541,3.057 6.541,6.787 l 0,28.981 c 0,1.59 1.406,2.813 3.18,2.813 1.712,0 3.119,-1.223 3.119,-2.813 L 25.68,0 c 0,-6.849 -5.688,-12.474 -12.84,-12.474 C 5.746,-12.474 0,-6.849 0,0"
             style="fill:#ffffff;fill-opacity:1;fill-rule:nonzero;stroke:none"
             id="path44" /></g></g></g></g></svg>